<mxfile host="app.diagrams.net" modified="2022-02-28T09:44:21.939Z" agent="5.0 (Windows)" etag="x1plqjsU9t7kAqGq6SP5" version="16.6.4" type="github">
  <diagram id="9_Wc4JojZyw2gUKqIsBO" name="Page-1">
    <mxGraphModel dx="782" dy="1259" grid="0" gridSize="10" guides="1" tooltips="1" connect="1" arrows="1" fold="1" page="0" pageScale="1" pageWidth="827" pageHeight="1169" background="none" math="0" shadow="0">
      <root>
        <mxCell id="0" />
        <mxCell id="1" parent="0" />
        <mxCell id="OD2zqKiSyOLXe6nQ0CJi-3" value="" style="rounded=1;whiteSpace=wrap;html=1;hachureGap=4;fillColor=#d5e8d4;strokeColor=#000000;strokeWidth=2;" parent="1" vertex="1">
          <mxGeometry x="375" y="-652" width="284" height="184" as="geometry" />
        </mxCell>
        <mxCell id="V5X0dFHsO0KxBSgFWat6-3" value="" style="rounded=1;whiteSpace=wrap;html=1;hachureGap=4;fillColor=#d5e8d4;strokeColor=#000000;strokeWidth=2;" parent="1" vertex="1">
          <mxGeometry x="54" y="-652" width="284" height="184" as="geometry" />
        </mxCell>
        <mxCell id="V5X0dFHsO0KxBSgFWat6-4" value="" style="rounded=1;whiteSpace=wrap;html=1;hachureGap=4;fillColor=#d5e8d4;strokeColor=#000000;strokeWidth=2;" parent="1" vertex="1">
          <mxGeometry x="696" y="-652" width="284" height="184" as="geometry" />
        </mxCell>
        <mxCell id="V5X0dFHsO0KxBSgFWat6-6" value="" style="endArrow=classic;html=1;rounded=0;strokeWidth=2;" parent="1" edge="1">
          <mxGeometry width="50" height="50" relative="1" as="geometry">
            <mxPoint x="337" y="-614" as="sourcePoint" />
            <mxPoint x="374" y="-614" as="targetPoint" />
          </mxGeometry>
        </mxCell>
        <mxCell id="V5X0dFHsO0KxBSgFWat6-8" value="" style="endArrow=classic;html=1;rounded=0;strokeWidth=2;entryX=0.743;entryY=0.967;entryDx=0;entryDy=0;entryPerimeter=0;" parent="1" target="V5X0dFHsO0KxBSgFWat6-23" edge="1">
          <mxGeometry width="50" height="50" relative="1" as="geometry">
            <mxPoint x="659" y="-510" as="sourcePoint" />
            <mxPoint x="696" y="-511" as="targetPoint" />
          </mxGeometry>
        </mxCell>
        <mxCell id="V5X0dFHsO0KxBSgFWat6-10" value="&lt;b&gt;C&lt;/b&gt;&lt;font style=&quot;font-size: 9px&quot;&gt;t-1&lt;/font&gt;" style="text;html=1;strokeColor=none;fillColor=none;align=center;verticalAlign=middle;whiteSpace=wrap;rounded=0;fontSize=17;" parent="1" vertex="1">
          <mxGeometry x="320" y="-647" width="70" height="30" as="geometry" />
        </mxCell>
        <mxCell id="V5X0dFHsO0KxBSgFWat6-12" value="" style="endArrow=classic;html=1;rounded=0;strokeWidth=2;" parent="1" edge="1">
          <mxGeometry width="50" height="50" relative="1" as="geometry">
            <mxPoint x="338" y="-511" as="sourcePoint" />
            <mxPoint x="375" y="-511" as="targetPoint" />
          </mxGeometry>
        </mxCell>
        <mxCell id="V5X0dFHsO0KxBSgFWat6-15" value="&lt;b&gt;h&lt;/b&gt;&lt;font style=&quot;font-size: 9px&quot;&gt;t-1&lt;/font&gt;" style="text;html=1;strokeColor=none;fillColor=none;align=center;verticalAlign=middle;whiteSpace=wrap;rounded=0;fontSize=17;" parent="1" vertex="1">
          <mxGeometry x="320" y="-539" width="70" height="30" as="geometry" />
        </mxCell>
        <mxCell id="V5X0dFHsO0KxBSgFWat6-16" value="&lt;b&gt;C&lt;/b&gt;&lt;font style=&quot;font-size: 9px&quot;&gt;t&lt;/font&gt;" style="text;html=1;strokeColor=none;fillColor=none;align=center;verticalAlign=middle;whiteSpace=wrap;rounded=0;fontSize=17;" parent="1" vertex="1">
          <mxGeometry x="641" y="-644" width="70" height="30" as="geometry" />
        </mxCell>
        <mxCell id="V5X0dFHsO0KxBSgFWat6-20" value="&lt;b&gt;C&lt;/b&gt;&lt;font style=&quot;font-size: 9px&quot;&gt;t-1&lt;/font&gt;" style="text;html=1;strokeColor=none;fillColor=none;align=center;verticalAlign=middle;whiteSpace=wrap;rounded=0;fontSize=17;" parent="1" vertex="1">
          <mxGeometry x="320" y="-647" width="70" height="30" as="geometry" />
        </mxCell>
        <mxCell id="V5X0dFHsO0KxBSgFWat6-22" value="" style="endArrow=classic;html=1;rounded=0;strokeWidth=2;" parent="1" edge="1">
          <mxGeometry width="50" height="50" relative="1" as="geometry">
            <mxPoint x="659" y="-614" as="sourcePoint" />
            <mxPoint x="696" y="-614" as="targetPoint" />
          </mxGeometry>
        </mxCell>
        <mxCell id="V5X0dFHsO0KxBSgFWat6-23" value="&lt;b&gt;h&lt;/b&gt;&lt;font style=&quot;font-size: 9px&quot;&gt;t&lt;/font&gt;" style="text;html=1;strokeColor=none;fillColor=none;align=center;verticalAlign=middle;whiteSpace=wrap;rounded=0;fontSize=17;" parent="1" vertex="1">
          <mxGeometry x="644" y="-539" width="70" height="30" as="geometry" />
        </mxCell>
        <mxCell id="V5X0dFHsO0KxBSgFWat6-24" value="&lt;font size=&quot;1&quot;&gt;&lt;b style=&quot;font-size: 24px&quot;&gt;t-1&lt;/b&gt;&lt;/font&gt;" style="text;html=1;strokeColor=none;fillColor=none;align=center;verticalAlign=middle;whiteSpace=wrap;rounded=0;fontSize=9;" parent="1" vertex="1">
          <mxGeometry x="166" y="-575" width="60" height="30" as="geometry" />
        </mxCell>
        <mxCell id="V5X0dFHsO0KxBSgFWat6-25" value="&lt;font size=&quot;1&quot;&gt;&lt;b style=&quot;font-size: 24px&quot;&gt;t+1&lt;/b&gt;&lt;/font&gt;" style="text;html=1;strokeColor=none;fillColor=none;align=center;verticalAlign=middle;whiteSpace=wrap;rounded=0;fontSize=9;" parent="1" vertex="1">
          <mxGeometry x="808" y="-575" width="60" height="30" as="geometry" />
        </mxCell>
        <mxCell id="V5X0dFHsO0KxBSgFWat6-31" value="" style="endArrow=classic;html=1;rounded=0;fontSize=24;strokeWidth=2;startArrow=none;" parent="1" source="V5X0dFHsO0KxBSgFWat6-29" edge="1">
          <mxGeometry width="50" height="50" relative="1" as="geometry">
            <mxPoint x="377" y="-614.5" as="sourcePoint" />
            <mxPoint x="657" y="-614.5" as="targetPoint" />
          </mxGeometry>
        </mxCell>
        <mxCell id="V5X0dFHsO0KxBSgFWat6-33" value="" style="endArrow=classic;html=1;rounded=0;fontSize=24;strokeWidth=2;startArrow=none;" parent="1" source="V5X0dFHsO0KxBSgFWat6-35" edge="1">
          <mxGeometry width="50" height="50" relative="1" as="geometry">
            <mxPoint x="435" y="-512" as="sourcePoint" />
            <mxPoint x="434.5" y="-604" as="targetPoint" />
          </mxGeometry>
        </mxCell>
        <mxCell id="V5X0dFHsO0KxBSgFWat6-35" value="" style="rounded=0;whiteSpace=wrap;html=1;fontSize=24;strokeColor=#000000;strokeWidth=2;" parent="1" vertex="1">
          <mxGeometry x="422" y="-549" width="26" height="19" as="geometry" />
        </mxCell>
        <mxCell id="V5X0dFHsO0KxBSgFWat6-37" value="" style="endArrow=none;html=1;rounded=0;fontSize=24;strokeWidth=2;" parent="1" target="V5X0dFHsO0KxBSgFWat6-35" edge="1">
          <mxGeometry width="50" height="50" relative="1" as="geometry">
            <mxPoint x="435" y="-510" as="sourcePoint" />
            <mxPoint x="434.5" y="-604" as="targetPoint" />
          </mxGeometry>
        </mxCell>
        <mxCell id="V5X0dFHsO0KxBSgFWat6-29" value="" style="ellipse;whiteSpace=wrap;html=1;aspect=fixed;fontSize=24;strokeColor=#000000;strokeWidth=2;" parent="1" vertex="1">
          <mxGeometry x="498" y="-624" width="20" height="20" as="geometry" />
        </mxCell>
        <mxCell id="V5X0dFHsO0KxBSgFWat6-39" value="" style="endArrow=none;html=1;rounded=0;fontSize=24;strokeWidth=2;" parent="1" target="V5X0dFHsO0KxBSgFWat6-29" edge="1">
          <mxGeometry width="50" height="50" relative="1" as="geometry">
            <mxPoint x="375" y="-614" as="sourcePoint" />
            <mxPoint x="657" y="-614.5" as="targetPoint" />
          </mxGeometry>
        </mxCell>
        <mxCell id="V5X0dFHsO0KxBSgFWat6-41" value="" style="endArrow=classic;html=1;rounded=0;fontSize=24;strokeWidth=2;entryX=0;entryY=0.5;entryDx=0;entryDy=0;" parent="1" edge="1">
          <mxGeometry width="50" height="50" relative="1" as="geometry">
            <mxPoint x="479" y="-510" as="sourcePoint" />
            <mxPoint x="497" y="-572" as="targetPoint" />
            <Array as="points">
              <mxPoint x="479" y="-572" />
            </Array>
          </mxGeometry>
        </mxCell>
        <mxCell id="V5X0dFHsO0KxBSgFWat6-26" value="" style="ellipse;whiteSpace=wrap;html=1;aspect=fixed;fontSize=24;strokeColor=#000000;strokeWidth=2;" parent="1" vertex="1">
          <mxGeometry x="425" y="-624" width="20" height="20" as="geometry" />
        </mxCell>
        <mxCell id="V5X0dFHsO0KxBSgFWat6-55" value="" style="endArrow=classic;html=1;rounded=0;fontSize=24;strokeWidth=2;entryX=0;entryY=0.5;entryDx=0;entryDy=0;" parent="1" target="V5X0dFHsO0KxBSgFWat6-47" edge="1">
          <mxGeometry width="50" height="50" relative="1" as="geometry">
            <mxPoint x="376" y="-510" as="sourcePoint" />
            <mxPoint x="478" y="-527" as="targetPoint" />
            <Array as="points">
              <mxPoint x="559" y="-510" />
              <mxPoint x="559" y="-574" />
            </Array>
          </mxGeometry>
        </mxCell>
        <mxCell id="V5X0dFHsO0KxBSgFWat6-57" value="" style="endArrow=classic;html=1;rounded=0;fontSize=24;strokeWidth=2;entryX=0.2;entryY=0.956;entryDx=0;entryDy=0;entryPerimeter=0;" parent="1" target="V5X0dFHsO0KxBSgFWat6-23" edge="1">
          <mxGeometry width="50" height="50" relative="1" as="geometry">
            <mxPoint x="595" y="-614" as="sourcePoint" />
            <mxPoint x="643" y="-534" as="targetPoint" />
            <Array as="points">
              <mxPoint x="596" y="-511" />
            </Array>
          </mxGeometry>
        </mxCell>
        <mxCell id="V5X0dFHsO0KxBSgFWat6-61" value="" style="endArrow=classic;html=1;rounded=0;fontSize=24;strokeWidth=4;strokeColor=#000000;" parent="1" edge="1">
          <mxGeometry width="50" height="50" relative="1" as="geometry">
            <mxPoint x="623" y="-511" as="sourcePoint" />
            <mxPoint x="622" y="-684" as="targetPoint" />
          </mxGeometry>
        </mxCell>
        <mxCell id="V5X0dFHsO0KxBSgFWat6-63" value="&lt;b&gt;h&lt;/b&gt;&lt;font style=&quot;font-size: 9px&quot;&gt;t&lt;/font&gt;" style="text;html=1;strokeColor=none;fillColor=none;align=center;verticalAlign=middle;whiteSpace=wrap;rounded=0;fontSize=17;" parent="1" vertex="1">
          <mxGeometry x="586" y="-708" width="70" height="30" as="geometry" />
        </mxCell>
        <mxCell id="V5X0dFHsO0KxBSgFWat6-64" value="" style="endArrow=classic;html=1;rounded=0;fontSize=24;strokeColor=#000000;strokeWidth=2;" parent="1" edge="1">
          <mxGeometry width="50" height="50" relative="1" as="geometry">
            <mxPoint x="407" y="-438" as="sourcePoint" />
            <mxPoint x="407" y="-509" as="targetPoint" />
          </mxGeometry>
        </mxCell>
        <mxCell id="V5X0dFHsO0KxBSgFWat6-38" value="" style="rounded=0;whiteSpace=wrap;html=1;fontSize=24;strokeColor=#000000;strokeWidth=2;" parent="1" vertex="1">
          <mxGeometry x="466" y="-549" width="26" height="19" as="geometry" />
        </mxCell>
        <mxCell id="V5X0dFHsO0KxBSgFWat6-46" value="" style="endArrow=classic;html=1;rounded=0;fontSize=24;strokeWidth=2;entryX=0.5;entryY=1;entryDx=0;entryDy=0;" parent="1" target="V5X0dFHsO0KxBSgFWat6-29" edge="1">
          <mxGeometry width="50" height="50" relative="1" as="geometry">
            <mxPoint x="508" y="-509" as="sourcePoint" />
            <mxPoint x="538" y="-599" as="targetPoint" />
          </mxGeometry>
        </mxCell>
        <mxCell id="V5X0dFHsO0KxBSgFWat6-42" value="" style="ellipse;whiteSpace=wrap;html=1;aspect=fixed;fontSize=24;strokeColor=#000000;strokeWidth=2;" parent="1" vertex="1">
          <mxGeometry x="498" y="-582" width="20" height="20" as="geometry" />
        </mxCell>
        <mxCell id="V5X0dFHsO0KxBSgFWat6-43" value="" style="rounded=0;whiteSpace=wrap;html=1;fontSize=24;strokeColor=#000000;strokeWidth=2;" parent="1" vertex="1">
          <mxGeometry x="495" y="-549" width="26" height="19" as="geometry" />
        </mxCell>
        <mxCell id="V5X0dFHsO0KxBSgFWat6-48" value="" style="rounded=0;whiteSpace=wrap;html=1;fontSize=24;strokeColor=#000000;strokeWidth=2;" parent="1" vertex="1">
          <mxGeometry x="546" y="-549" width="26" height="19" as="geometry" />
        </mxCell>
        <mxCell id="V5X0dFHsO0KxBSgFWat6-54" value="" style="rounded=0;whiteSpace=wrap;html=1;fontSize=24;strokeColor=#000000;strokeWidth=2;" parent="1" vertex="1">
          <mxGeometry x="584.5" y="-599" width="23" height="10" as="geometry" />
        </mxCell>
        <mxCell id="V5X0dFHsO0KxBSgFWat6-47" value="" style="ellipse;whiteSpace=wrap;html=1;aspect=fixed;fontSize=24;strokeColor=#000000;strokeWidth=2;" parent="1" vertex="1">
          <mxGeometry x="586" y="-584" width="20" height="20" as="geometry" />
        </mxCell>
        <mxCell id="V5X0dFHsO0KxBSgFWat6-65" value="×" style="text;html=1;strokeColor=none;fillColor=none;align=center;verticalAlign=middle;whiteSpace=wrap;rounded=0;fontSize=24;" parent="1" vertex="1">
          <mxGeometry x="405" y="-629" width="60" height="30" as="geometry" />
        </mxCell>
        <mxCell id="V5X0dFHsO0KxBSgFWat6-66" value="+" style="text;html=1;strokeColor=none;fillColor=none;align=center;verticalAlign=middle;whiteSpace=wrap;rounded=0;fontSize=24;" parent="1" vertex="1">
          <mxGeometry x="478" y="-629" width="60" height="30" as="geometry" />
        </mxCell>
        <mxCell id="V5X0dFHsO0KxBSgFWat6-67" value="×" style="text;html=1;strokeColor=none;fillColor=none;align=center;verticalAlign=middle;whiteSpace=wrap;rounded=0;fontSize=24;" parent="1" vertex="1">
          <mxGeometry x="566" y="-589" width="60" height="30" as="geometry" />
        </mxCell>
        <mxCell id="V5X0dFHsO0KxBSgFWat6-68" value="×" style="text;html=1;strokeColor=none;fillColor=none;align=center;verticalAlign=middle;whiteSpace=wrap;rounded=0;fontSize=24;" parent="1" vertex="1">
          <mxGeometry x="478" y="-587" width="60" height="30" as="geometry" />
        </mxCell>
        <mxCell id="V5X0dFHsO0KxBSgFWat6-69" value="&lt;b&gt;&lt;font style=&quot;font-size: 8px&quot;&gt;tanh&lt;/font&gt;&lt;/b&gt;" style="text;html=1;strokeColor=none;fillColor=none;align=center;verticalAlign=middle;whiteSpace=wrap;rounded=0;fontSize=24;" parent="1" vertex="1">
          <mxGeometry x="566" y="-615" width="60" height="30" as="geometry" />
        </mxCell>
        <mxCell id="V5X0dFHsO0KxBSgFWat6-71" value="&lt;font style=&quot;font-size: 10px&quot;&gt;&lt;b&gt;tanh&lt;/b&gt;&lt;/font&gt;" style="text;html=1;strokeColor=none;fillColor=none;align=center;verticalAlign=middle;whiteSpace=wrap;rounded=0;fontSize=8;" parent="1" vertex="1">
          <mxGeometry x="478" y="-554" width="60" height="28" as="geometry" />
        </mxCell>
        <mxCell id="V5X0dFHsO0KxBSgFWat6-72" value="&lt;font style=&quot;font-size: 12px&quot;&gt;&lt;b&gt;σ&lt;font style=&quot;font-size: 6px&quot;&gt;1&lt;/font&gt;&lt;/b&gt;&lt;/font&gt;" style="text;html=1;strokeColor=none;fillColor=none;align=center;verticalAlign=middle;whiteSpace=wrap;rounded=0;fontSize=10;" parent="1" vertex="1">
          <mxGeometry x="405" y="-556" width="60" height="30" as="geometry" />
        </mxCell>
        <mxCell id="V5X0dFHsO0KxBSgFWat6-74" value="&lt;font style=&quot;font-size: 12px&quot;&gt;&lt;b&gt;σ&lt;font style=&quot;font-size: 6px&quot;&gt;2&lt;/font&gt;&lt;/b&gt;&lt;/font&gt;" style="text;html=1;strokeColor=none;fillColor=none;align=center;verticalAlign=middle;whiteSpace=wrap;rounded=0;fontSize=10;" parent="1" vertex="1">
          <mxGeometry x="449" y="-556" width="60" height="30" as="geometry" />
        </mxCell>
        <mxCell id="V5X0dFHsO0KxBSgFWat6-75" value="&lt;font style=&quot;font-size: 12px&quot;&gt;&lt;b&gt;σ&lt;font style=&quot;font-size: 6px&quot;&gt;3&lt;/font&gt;&lt;/b&gt;&lt;/font&gt;" style="text;html=1;strokeColor=none;fillColor=none;align=center;verticalAlign=middle;whiteSpace=wrap;rounded=0;fontSize=10;" parent="1" vertex="1">
          <mxGeometry x="529" y="-556" width="60" height="30" as="geometry" />
        </mxCell>
        <mxCell id="V5X0dFHsO0KxBSgFWat6-76" value="&lt;b&gt;X&lt;/b&gt;&lt;font style=&quot;font-size: 9px&quot;&gt;t&lt;/font&gt;" style="text;html=1;strokeColor=none;fillColor=none;align=center;verticalAlign=middle;whiteSpace=wrap;rounded=0;fontSize=17;" parent="1" vertex="1">
          <mxGeometry x="373" y="-446" width="70" height="30" as="geometry" />
        </mxCell>
        <mxCell id="LrEFJJrs9VeRW5LqGO_G-1" value="&lt;b&gt;i&lt;/b&gt;&lt;font style=&quot;font-size: 9px&quot;&gt;t&lt;/font&gt;" style="text;html=1;strokeColor=none;fillColor=none;align=center;verticalAlign=middle;whiteSpace=wrap;rounded=0;fontSize=17;" vertex="1" parent="1">
          <mxGeometry x="434" y="-582" width="70" height="30" as="geometry" />
        </mxCell>
        <mxCell id="LrEFJJrs9VeRW5LqGO_G-3" value="&lt;b&gt;f&lt;/b&gt;&lt;font style=&quot;font-size: 9px&quot;&gt;t&lt;/font&gt;" style="text;html=1;strokeColor=none;fillColor=none;align=center;verticalAlign=middle;whiteSpace=wrap;rounded=0;fontSize=17;" vertex="1" parent="1">
          <mxGeometry x="387" y="-594" width="70" height="30" as="geometry" />
        </mxCell>
        <mxCell id="LrEFJJrs9VeRW5LqGO_G-4" value="&lt;b&gt;o&lt;/b&gt;&lt;font style=&quot;font-size: 9px&quot;&gt;t&lt;/font&gt;" style="text;html=1;strokeColor=none;fillColor=none;align=center;verticalAlign=middle;whiteSpace=wrap;rounded=0;fontSize=17;" vertex="1" parent="1">
          <mxGeometry x="529" y="-601" width="70" height="30" as="geometry" />
        </mxCell>
        <mxCell id="LrEFJJrs9VeRW5LqGO_G-5" value="&lt;b&gt;g&lt;/b&gt;&lt;font style=&quot;font-size: 9px&quot;&gt;t&lt;/font&gt;" style="text;html=1;strokeColor=none;fillColor=none;align=center;verticalAlign=middle;whiteSpace=wrap;rounded=0;fontSize=17;" vertex="1" parent="1">
          <mxGeometry x="492" y="-579" width="70" height="30" as="geometry" />
        </mxCell>
      </root>
    </mxGraphModel>
  </diagram>
</mxfile>
